<mxfile host="app.diagrams.net" agent="Mozilla/5.0 (X11; Linux x86_64; rv:128.0) Gecko/20100101 Firefox/128.0" version="24.7.16">
  <diagram name="PÃ¡gina-1" id="IPbVYzYt1YqHGAzCNpvw">
    <mxGraphModel dx="1405" dy="809" grid="1" gridSize="10" guides="1" tooltips="1" connect="1" arrows="1" fold="1" page="1" pageScale="1" pageWidth="1169" pageHeight="827" math="0" shadow="0">
      <root>
        <mxCell id="0" />
        <mxCell id="1" parent="0" />
        <mxCell id="o6lBdiqdc_8uNh42KdUO-18" value="" style="edgeStyle=orthogonalEdgeStyle;rounded=0;orthogonalLoop=1;jettySize=auto;html=1;endArrow=none;endFill=0;" parent="1" source="o6lBdiqdc_8uNh42KdUO-1" target="o6lBdiqdc_8uNh42KdUO-17" edge="1">
          <mxGeometry relative="1" as="geometry" />
        </mxCell>
        <mxCell id="o6lBdiqdc_8uNh42KdUO-20" value="" style="edgeStyle=orthogonalEdgeStyle;rounded=0;orthogonalLoop=1;jettySize=auto;html=1;endArrow=none;endFill=0;" parent="1" source="o6lBdiqdc_8uNh42KdUO-1" edge="1">
          <mxGeometry relative="1" as="geometry">
            <mxPoint x="315" y="140" as="targetPoint" />
          </mxGeometry>
        </mxCell>
        <mxCell id="o6lBdiqdc_8uNh42KdUO-1" value="&lt;b&gt;&lt;font color=&quot;#000000&quot;&gt;Router&lt;/font&gt;&lt;/b&gt;" style="fontColor=#0066CC;verticalAlign=top;verticalLabelPosition=bottom;labelPosition=center;align=center;html=1;outlineConnect=0;fillColor=#CCCCCC;strokeColor=#6881B3;gradientColor=none;gradientDirection=north;strokeWidth=2;shape=mxgraph.networks.desktop_pc;" parent="1" vertex="1">
          <mxGeometry x="290" y="220" width="50" height="100" as="geometry" />
        </mxCell>
        <mxCell id="o6lBdiqdc_8uNh42KdUO-5" value="" style="edgeStyle=orthogonalEdgeStyle;rounded=0;orthogonalLoop=1;jettySize=auto;html=1;endArrow=none;endFill=0;" parent="1" source="o6lBdiqdc_8uNh42KdUO-4" target="o6lBdiqdc_8uNh42KdUO-1" edge="1">
          <mxGeometry relative="1" as="geometry" />
        </mxCell>
        <mxCell id="dM-UdcAbZzsgwbRujOSQ-4" value="" style="edgeStyle=orthogonalEdgeStyle;rounded=0;orthogonalLoop=1;jettySize=auto;html=1;endArrow=none;endFill=0;" edge="1" parent="1" source="o6lBdiqdc_8uNh42KdUO-4" target="dM-UdcAbZzsgwbRujOSQ-2">
          <mxGeometry relative="1" as="geometry" />
        </mxCell>
        <mxCell id="o6lBdiqdc_8uNh42KdUO-4" value="" style="fontColor=#0066CC;verticalAlign=top;verticalLabelPosition=bottom;labelPosition=center;align=center;html=1;outlineConnect=0;fillColor=#CCCCCC;strokeColor=#6881B3;gradientColor=none;gradientDirection=north;strokeWidth=2;shape=mxgraph.networks.hub;" parent="1" vertex="1">
          <mxGeometry x="420" y="257.5" width="60" height="25" as="geometry" />
        </mxCell>
        <mxCell id="o6lBdiqdc_8uNh42KdUO-9" value="" style="edgeStyle=orthogonalEdgeStyle;rounded=0;orthogonalLoop=1;jettySize=auto;html=1;endArrow=none;endFill=0;" parent="1" source="o6lBdiqdc_8uNh42KdUO-6" target="o6lBdiqdc_8uNh42KdUO-4" edge="1">
          <mxGeometry relative="1" as="geometry">
            <mxPoint x="480" y="200" as="targetPoint" />
          </mxGeometry>
        </mxCell>
        <mxCell id="o6lBdiqdc_8uNh42KdUO-14" value="" style="edgeStyle=orthogonalEdgeStyle;rounded=0;orthogonalLoop=1;jettySize=auto;html=1;endArrow=none;endFill=0;entryX=0.5;entryY=0;entryDx=0;entryDy=0;entryPerimeter=0;" parent="1" source="o6lBdiqdc_8uNh42KdUO-6" target="o6lBdiqdc_8uNh42KdUO-12" edge="1">
          <mxGeometry relative="1" as="geometry">
            <mxPoint x="700" y="200" as="targetPoint" />
          </mxGeometry>
        </mxCell>
        <mxCell id="o6lBdiqdc_8uNh42KdUO-22" value="" style="edgeStyle=orthogonalEdgeStyle;rounded=0;orthogonalLoop=1;jettySize=auto;html=1;endArrow=none;endFill=0;" parent="1" edge="1">
          <mxGeometry relative="1" as="geometry">
            <mxPoint x="585" y="79" as="targetPoint" />
            <mxPoint x="585" y="48" as="sourcePoint" />
          </mxGeometry>
        </mxCell>
        <mxCell id="o6lBdiqdc_8uNh42KdUO-6" value="&lt;b&gt;&lt;font color=&quot;#000000&quot;&gt;Web&lt;/font&gt;&lt;/b&gt;" style="fontColor=#0066CC;verticalAlign=top;verticalLabelPosition=bottom;labelPosition=center;align=center;html=1;outlineConnect=0;fillColor=#CCCCCC;strokeColor=#6881B3;gradientColor=none;gradientDirection=north;strokeWidth=2;shape=mxgraph.networks.desktop_pc;" parent="1" vertex="1">
          <mxGeometry x="560" y="70" width="50" height="100" as="geometry" />
        </mxCell>
        <mxCell id="o6lBdiqdc_8uNh42KdUO-11" value="" style="edgeStyle=orthogonalEdgeStyle;rounded=0;orthogonalLoop=1;jettySize=auto;html=1;endArrow=none;endFill=0;" parent="1" source="o6lBdiqdc_8uNh42KdUO-7" target="o6lBdiqdc_8uNh42KdUO-4" edge="1">
          <mxGeometry relative="1" as="geometry">
            <mxPoint x="515" y="350" as="targetPoint" />
          </mxGeometry>
        </mxCell>
        <mxCell id="o6lBdiqdc_8uNh42KdUO-16" value="" style="edgeStyle=orthogonalEdgeStyle;rounded=0;orthogonalLoop=1;jettySize=auto;html=1;endArrow=none;endFill=0;entryX=0.5;entryY=1;entryDx=0;entryDy=0;entryPerimeter=0;" parent="1" source="o6lBdiqdc_8uNh42KdUO-7" target="o6lBdiqdc_8uNh42KdUO-12" edge="1">
          <mxGeometry relative="1" as="geometry">
            <mxPoint x="655" y="350" as="targetPoint" />
          </mxGeometry>
        </mxCell>
        <mxCell id="o6lBdiqdc_8uNh42KdUO-23" value="" style="edgeStyle=orthogonalEdgeStyle;rounded=0;orthogonalLoop=1;jettySize=auto;html=1;endArrow=none;endFill=0;exitX=0.5;exitY=0;exitDx=0;exitDy=0;exitPerimeter=0;" parent="1" source="o6lBdiqdc_8uNh42KdUO-7" edge="1">
          <mxGeometry relative="1" as="geometry">
            <mxPoint x="585" y="345" as="targetPoint" />
            <mxPoint x="585" y="445" as="sourcePoint" />
          </mxGeometry>
        </mxCell>
        <mxCell id="o6lBdiqdc_8uNh42KdUO-7" value="&lt;font color=&quot;#000000&quot;&gt;&lt;b&gt;SAN&lt;/b&gt;&lt;/font&gt;" style="fontColor=#0066CC;verticalAlign=top;verticalLabelPosition=bottom;labelPosition=center;align=center;html=1;outlineConnect=0;fillColor=#CCCCCC;strokeColor=#6881B3;gradientColor=none;gradientDirection=north;strokeWidth=2;shape=mxgraph.networks.desktop_pc;" parent="1" vertex="1">
          <mxGeometry x="560" y="382" width="50" height="100" as="geometry" />
        </mxCell>
        <mxCell id="o6lBdiqdc_8uNh42KdUO-12" value="" style="fontColor=#0066CC;verticalAlign=top;verticalLabelPosition=bottom;labelPosition=center;align=center;html=1;outlineConnect=0;fillColor=#CCCCCC;strokeColor=#6881B3;gradientColor=none;gradientDirection=north;strokeWidth=2;shape=mxgraph.networks.hub;" parent="1" vertex="1">
          <mxGeometry x="670" y="257.5" width="60" height="25" as="geometry" />
        </mxCell>
        <mxCell id="o6lBdiqdc_8uNh42KdUO-17" value="" style="ellipse;shape=cloud;whiteSpace=wrap;html=1;verticalAlign=top;fillColor=#CCCCCC;strokeColor=#6881B3;fontColor=#0066CC;gradientColor=none;gradientDirection=north;strokeWidth=2;" parent="1" vertex="1">
          <mxGeometry x="125" y="230" width="120" height="80" as="geometry" />
        </mxCell>
        <mxCell id="o6lBdiqdc_8uNh42KdUO-24" value="eth0" style="text;strokeColor=none;align=center;fillColor=none;html=1;verticalAlign=middle;whiteSpace=wrap;rounded=0;" parent="1" vertex="1">
          <mxGeometry x="300" y="150" width="60" height="30" as="geometry" />
        </mxCell>
        <mxCell id="o6lBdiqdc_8uNh42KdUO-25" value="eth0" style="text;strokeColor=none;align=center;fillColor=none;html=1;verticalAlign=middle;whiteSpace=wrap;rounded=0;" parent="1" vertex="1">
          <mxGeometry x="580" y="40" width="60" height="30" as="geometry" />
        </mxCell>
        <mxCell id="o6lBdiqdc_8uNh42KdUO-26" value="eth0" style="text;strokeColor=none;align=center;fillColor=none;html=1;verticalAlign=middle;whiteSpace=wrap;rounded=0;" parent="1" vertex="1">
          <mxGeometry x="570" y="356" width="60" height="30" as="geometry" />
        </mxCell>
        <mxCell id="o6lBdiqdc_8uNh42KdUO-27" value="eth1" style="text;strokeColor=none;align=center;fillColor=none;html=1;verticalAlign=middle;whiteSpace=wrap;rounded=0;" parent="1" vertex="1">
          <mxGeometry x="240" y="270" width="60" height="30" as="geometry" />
        </mxCell>
        <mxCell id="o6lBdiqdc_8uNh42KdUO-28" value="eth2" style="text;strokeColor=none;align=center;fillColor=none;html=1;verticalAlign=middle;whiteSpace=wrap;rounded=0;" parent="1" vertex="1">
          <mxGeometry x="330" y="270" width="60" height="30" as="geometry" />
        </mxCell>
        <mxCell id="o6lBdiqdc_8uNh42KdUO-29" value="eth1" style="text;strokeColor=none;align=center;fillColor=none;html=1;verticalAlign=middle;whiteSpace=wrap;rounded=0;" parent="1" vertex="1">
          <mxGeometry x="510" y="120" width="60" height="30" as="geometry" />
        </mxCell>
        <mxCell id="o6lBdiqdc_8uNh42KdUO-30" value="eth1" style="text;strokeColor=none;align=center;fillColor=none;html=1;verticalAlign=middle;whiteSpace=wrap;rounded=0;" parent="1" vertex="1">
          <mxGeometry x="510" y="410" width="60" height="30" as="geometry" />
        </mxCell>
        <mxCell id="o6lBdiqdc_8uNh42KdUO-31" value="eth2" style="text;strokeColor=none;align=center;fillColor=none;html=1;verticalAlign=middle;whiteSpace=wrap;rounded=0;" parent="1" vertex="1">
          <mxGeometry x="600" y="120" width="60" height="30" as="geometry" />
        </mxCell>
        <mxCell id="o6lBdiqdc_8uNh42KdUO-32" value="eth2" style="text;strokeColor=none;align=center;fillColor=none;html=1;verticalAlign=middle;whiteSpace=wrap;rounded=0;" parent="1" vertex="1">
          <mxGeometry x="600" y="410" width="60" height="30" as="geometry" />
        </mxCell>
        <mxCell id="o6lBdiqdc_8uNh42KdUO-33" value="&lt;b&gt;red_intra&lt;/b&gt;" style="text;strokeColor=none;align=center;fillColor=none;html=1;verticalAlign=middle;whiteSpace=wrap;rounded=0;" parent="1" vertex="1">
          <mxGeometry x="390" y="282.5" width="60" height="30" as="geometry" />
        </mxCell>
        <mxCell id="o6lBdiqdc_8uNh42KdUO-34" value="&lt;b&gt;red_datos&lt;/b&gt;" style="text;strokeColor=none;align=center;fillColor=none;html=1;verticalAlign=middle;whiteSpace=wrap;rounded=0;" parent="1" vertex="1">
          <mxGeometry x="640" y="280" width="60" height="30" as="geometry" />
        </mxCell>
        <mxCell id="dM-UdcAbZzsgwbRujOSQ-5" value="" style="edgeStyle=orthogonalEdgeStyle;rounded=0;orthogonalLoop=1;jettySize=auto;html=1;entryX=0;entryY=0.5;entryDx=0;entryDy=0;entryPerimeter=0;endArrow=none;endFill=0;" edge="1" parent="1" source="dM-UdcAbZzsgwbRujOSQ-2" target="o6lBdiqdc_8uNh42KdUO-12">
          <mxGeometry relative="1" as="geometry" />
        </mxCell>
        <mxCell id="dM-UdcAbZzsgwbRujOSQ-8" style="edgeStyle=none;rounded=0;orthogonalLoop=1;jettySize=auto;html=1;exitX=0.5;exitY=0;exitDx=0;exitDy=0;exitPerimeter=0;endArrow=none;endFill=0;" edge="1" parent="1" source="dM-UdcAbZzsgwbRujOSQ-2">
          <mxGeometry relative="1" as="geometry">
            <mxPoint x="585.2" y="210" as="targetPoint" />
          </mxGeometry>
        </mxCell>
        <mxCell id="dM-UdcAbZzsgwbRujOSQ-2" value="&lt;font color=&quot;#000000&quot;&gt;&lt;b&gt;BD&lt;/b&gt;&lt;/font&gt;" style="fontColor=#0066CC;verticalAlign=top;verticalLabelPosition=bottom;labelPosition=center;align=center;html=1;outlineConnect=0;fillColor=#CCCCCC;strokeColor=#6881B3;gradientColor=none;gradientDirection=north;strokeWidth=2;shape=mxgraph.networks.desktop_pc;" vertex="1" parent="1">
          <mxGeometry x="560" y="220" width="50" height="100" as="geometry" />
        </mxCell>
        <mxCell id="dM-UdcAbZzsgwbRujOSQ-6" value="eth0" style="text;strokeColor=none;align=center;fillColor=none;html=1;verticalAlign=middle;whiteSpace=wrap;rounded=0;" vertex="1" parent="1">
          <mxGeometry x="570" y="196" width="60" height="30" as="geometry" />
        </mxCell>
        <mxCell id="dM-UdcAbZzsgwbRujOSQ-9" value="eth1" style="text;strokeColor=none;align=center;fillColor=none;html=1;verticalAlign=middle;whiteSpace=wrap;rounded=0;" vertex="1" parent="1">
          <mxGeometry x="510" y="240" width="60" height="30" as="geometry" />
        </mxCell>
        <mxCell id="dM-UdcAbZzsgwbRujOSQ-10" value="eth2" style="text;strokeColor=none;align=center;fillColor=none;html=1;verticalAlign=middle;whiteSpace=wrap;rounded=0;" vertex="1" parent="1">
          <mxGeometry x="600" y="240" width="60" height="30" as="geometry" />
        </mxCell>
      </root>
    </mxGraphModel>
  </diagram>
</mxfile>
